<svg xmlns="http://www.w3.org/2000/svg" enable-background="new 0 0 512 512" viewBox="0 0 512 512"><path fill="none" d="M275.9,243.1c0-11-8.9-19.9-19.9-19.9s-19.9,8.9-19.9,19.9c0,11,8.9,19.9,19.9,19.9S275.9,254.1,275.9,243.1z"/><path fill="none" d="M397.8,243.1c0-78.2-63.6-141.8-141.8-141.8s-141.8,63.6-141.8,141.8S177.8,385,256,385
		S397.8,321.3,397.8,243.1z M362.4,232.2c6,0,10.9,4.9,10.9,10.9c0,6-4.9,10.9-10.9,10.9c-6,0-10.9-4.9-10.9-10.9
		C351.5,237.1,356.4,232.2,362.4,232.2z M332.2,156c6,0,10.9,4.9,10.9,10.9s-4.9,10.9-10.9,10.9c-6,0-10.9-4.9-10.9-10.9
		S326.2,156,332.2,156z M330.5,306.7c6,0,10.9,4.9,10.9,10.9c0,6-4.9,10.9-10.9,10.9c-6,0-10.9-4.9-10.9-10.9
		C319.6,311.6,324.5,306.7,330.5,306.7z M255.3,122.8c6,0,10.9,4.9,10.9,10.9c0,6-4.9,10.9-10.9,10.9c-6,0-10.9-4.9-10.9-10.9
		C244.4,127.7,249.2,122.8,255.3,122.8z M146.5,254c-6,0-10.9-4.9-10.9-10.9c0-6,4.9-10.9,10.9-10.9c6,0,10.9,4.9,10.9,10.9
		C157.4,249.1,152.6,254,146.5,254z M177.9,154.1c6,0,10.9,4.9,10.9,10.9c0,6-4.9,10.9-10.9,10.9c-6,0-10.9-4.9-10.9-10.9
		C167,159,171.9,154.1,177.9,154.1z M179.8,330.2c-6,0-10.9-4.9-10.9-10.9c0-6,4.9-10.9,10.9-10.9c6,0,10.9,4.9,10.9,10.9
		C190.7,325.3,185.8,330.2,179.8,330.2z M216.1,243.1c0-22,17.9-39.9,39.9-39.9c7.4,0,14.3,2,20.2,5.5l24.3-24.3
		c3.9-3.9,10.2-3.9,14.1,0s3.9,10.2,0,14.1l-24.3,24.3c3.5,5.9,5.5,12.8,5.5,20.2c0,22-17.9,39.9-39.9,39.9S216.1,265.1,216.1,243.1
		z M245.1,349.5c0-6,4.9-10.9,10.9-10.9s10.9,4.9,10.9,10.9s-4.9,10.9-10.9,10.9S245.1,355.5,245.1,349.5z"/><path fill="none" d="M435.7,243.1c0-99.1-80.6-179.7-179.7-179.7S76.3,144.1,76.3,243.1c0,99.1,80.6,179.7,179.7,179.7
		S435.7,342.2,435.7,243.1z M94.2,243.1c0-89.2,72.6-161.8,161.8-161.8s161.8,72.6,161.8,161.8S345.2,405,256,405
		S94.2,332.4,94.2,243.1z"/><path d="M455.7,243.1c0-106.9-84.5-194.4-190.2-199.4V16c0-5.5-4.5-10-10-10s-10,4.5-10,10v27.7C140.3,49.2,56.3,136.5,56.3,243.1
		S140.3,437,245.5,442.5V486H214c-5.5,0-10,4.5-10,10s4.5,10,10,10h83c5.5,0,10-4.5,10-10s-4.5-10-10-10h-31.5v-43.5
		C371.2,437.6,455.7,350,455.7,243.1z M76.3,243.1c0-99.1,80.6-179.7,179.7-179.7s179.7,80.6,179.7,179.7
		c0,99.1-80.6,179.7-179.7,179.7S76.3,342.2,76.3,243.1z"/><path d="M417.8,243.1c0-89.2-72.6-161.8-161.8-161.8S94.2,153.9,94.2,243.1S166.8,405,256,405S417.8,332.4,417.8,243.1z
		 M114.2,243.1c0-78.2,63.6-141.8,141.8-141.8s141.8,63.6,141.8,141.8S334.2,385,256,385S114.2,321.3,114.2,243.1z"/><path d="M295.9,243.1c0-7.4-2-14.3-5.5-20.2l24.3-24.3c3.9-3.9,3.9-10.2,0-14.1s-10.2-3.9-14.1,0l-24.3,24.3
		c-5.9-3.5-12.8-5.5-20.2-5.5c-22,0-39.9,17.9-39.9,39.9c0,22,17.9,39.9,39.9,39.9S295.9,265.1,295.9,243.1z M236.1,243.1
		c0-11,8.9-19.9,19.9-19.9s19.9,8.9,19.9,19.9c0,11-8.9,19.9-19.9,19.9S236.1,254.1,236.1,243.1z"/><circle cx="177.9" cy="165" r="10.9"/><circle cx="255.3" cy="133.7" r="10.9"/><circle cx="332.2" cy="166.9" r="10.9"/><circle cx="362.4" cy="243.1" r="10.9"/><circle cx="330.5" cy="317.6" r="10.9"/><circle cx="256" cy="349.5" r="10.9"/><circle cx="179.8" cy="319.3" r="10.9"/><circle cx="146.5" cy="243.1" r="10.9"/></svg>