<svg xmlns="http://www.w3.org/2000/svg" enable-background="new 0 0 80 80" viewBox="0 0 80 80"><path d="M63.0009766 47.8222656C61.4970703 39.9394531 54.4912109 34 46.3125 34c-5.8994141 0-11.3564453 3.0957031-14.4306641 8.0380859C30.3544922 41.3544922 28.6982422 41 27 41c-6.6171875 0-12 5.3828125-12 12 0 .34375.015625.6894531.0458984 1.0341797C9.8525391 55.0039062 6 59.5917969 6 64.9228516 6 71.03125 10.96875 76 17.0771484 76h44.8046875C69.6669922 76 76 69.6669922 76 61.8828125c0-3.9091797-1.5605469-7.5419922-4.3955078-10.2285156C69.2548828 49.4267578 66.1943359 48.078125 63.0009766 47.8222656zM61.8818359 72H17.0771484C13.1748047 72 10 68.8251953 10 64.9228516c0-3.5214844 2.6318359-6.5351562 6.1201172-7.0117188l3.8164062-.5195312-.6269531-2.2158203C19.1044922 54.4511719 19 53.71875 19 53c0-4.4111328 3.5888672-8 8-8 1.6289062 0 3.1992188.4902344 4.5410156 1.4189453l1.9638672 1.3574219.9921875-2.1708984C36.6103516 40.9853516 41.2480469 38 46.3125 38c6.7246094 0 12.4111328 5.2509766 12.9453125 11.9541016l.1552734 1.9423828 1.9462891-.1044922c2.7880859-.1484375 5.4541016.8320312 7.4941406 2.765625C70.8828125 56.4804688 72 59.0820312 72 61.8828125 72 67.4619141 67.4609375 72 61.8818359 72zM27 38c6.0654297 0 11-4.9345703 11-11s-4.9345703-11-11-11-11 4.9345703-11 11S20.9345703 38 27 38zM27 20c3.859375 0 7 3.140625 7 7s-3.140625 7-7 7-7-3.140625-7-7S23.140625 20 27 20z"/><rect width="4" height="6" x="25" y="6"/><rect width="4" height="6.001" x="12.272" y="11.272" transform="rotate(-45 14.272 14.272)"/><rect width="6" height="4" x="6" y="25"/><rect width="6.001" height="4" x="11.272" y="37.728" transform="rotate(-45 14.272 39.728)"/><rect width="6" height="4" x="42" y="25"/><rect width="6.001" height="4" x="36.728" y="12.272" transform="rotate(-45 39.728 14.272)"/></svg>