<svg xmlns="http://www.w3.org/2000/svg" viewBox="0 0 32 32"><path d="M2,24.5A5.51,5.51,0,0,0,7.5,30h14a6.5,6.5,0,0,0,2.41-12.53v0a7.94,7.94,0,0,0,4.16-2.19,7.8,7.8,0,0,0,1.88-3A1,1,0,0,0,28.66,11,6,6,0,0,1,21,3.34a1,1,0,0,0-1.27-1.29,7.79,7.79,0,0,0-3,1.88A8,8,0,0,0,15,12.52a6.51,6.51,0,0,0-2.6,2A6,6,0,0,0,4,20c0,.09,0,.17,0,.26A5.47,5.47,0,0,0,2,24.5ZM18.17,5.35a6,6,0,0,1,.51-.46,8,8,0,0,0,8.43,8.43,6.32,6.32,0,0,1-.45.51,5.92,5.92,0,0,1-3.41,1.67A6.48,6.48,0,0,0,17.5,12c-.18,0-.36,0-.54,0A6,6,0,0,1,18.17,5.35ZM5.61,21.56a1.1,1.1,0,0,0,.44-1.05A3.39,3.39,0,0,1,6,20a4,4,0,0,1,6.16-3.35,1,1,0,0,0,1.42-.35,4.49,4.49,0,0,1,8.41,2,1,1,0,0,0,.73.91A4.5,4.5,0,0,1,21.5,28H7.5a3.49,3.49,0,0,1-1.89-6.44Z" data-name="Layer 2"/></svg>