<svg xmlns="http://www.w3.org/2000/svg" width="24" height="24" version="1.0"><path fill="#010101" d="M11.887 16.916c-1.302 0-2.361-1.069-2.361-2.385 0-.54.192-1.073.554-1.544l1.512-1.737c.136-.158.438-.154.568.008l.453.566.922 1.03a.346.346 0 0 1 .058.09c.41.442.626.989.626 1.587 0 1.316-1.046 2.385-2.332 2.385zm-.022-4.907-1.245 1.424c-.172.224-.394.614-.394 1.099 0 .93.745 1.686 1.661 1.686s1.632-.74 1.632-1.686c0-.442-.17-.846-.492-1.166a.341.341 0 0 1-.076-.113l-1.086-1.244z"/><path fill="#010101" d="M11.887 16.916c-1.302 0-2.361-1.069-2.361-2.385 0-.54.192-1.073.554-1.544l1.512-1.737c.136-.158.438-.154.568.008l.453.566.922 1.03a.346.346 0 0 1 .058.09c.41.442.626.989.626 1.587 0 1.316-1.046 2.385-2.332 2.385zm-.022-4.907-1.245 1.424c-.172.224-.394.614-.394 1.099 0 .93.745 1.686 1.661 1.686s1.632-.74 1.632-1.686c0-.442-.17-.846-.492-1.166a.341.341 0 0 1-.076-.113l-1.086-1.244zM7.469 12.873c-1.286 0-2.332-1.07-2.332-2.387 0-.582.195-1.119.564-1.555l1.501-1.726a.364.364 0 0 1 .532 0L9.145 8.81a.374.374 0 0 1 .058.09c.411.444.627.99.627 1.586 0 1.317-1.059 2.387-2.361 2.387zm0-4.9L6.232 9.389a1.654 1.654 0 0 0-.395 1.098c0 .946.716 1.688 1.631 1.688.916 0 1.661-.757 1.661-1.688 0-.44-.17-.844-.492-1.164a.357.357 0 0 1-.075-.115L7.469 7.973zM16.531 13.014a2.362 2.362 0 0 1-2.361-2.357c0-.558.205-1.123.563-1.552l1.509-1.734c.133-.148.417-.148.55 0l1.392 1.586v.001l.021.021c.424.46.658 1.056.658 1.679 0 1.298-1.046 2.356-2.332 2.356zm-.014-4.902-1.25 1.443c-.248.297-.397.71-.397 1.101 0 .914.745 1.658 1.661 1.658.899 0 1.631-.744 1.631-1.658a1.77 1.77 0 0 0-.473-1.204c-.012-.012-.024-.024-.035-.038v.001l-1.137-1.303z"/></svg>